<svg version="1.0" xmlns="http://www.w3.org/2000/svg" width="512.000000pt" height="512.000000pt"
                    viewBox="0 0 512.000000 512.000000" preserveAspectRatio="xMidYMid meet">
                    <g transform="translate(0.000000,512.000000) scale(0.100000,-0.100000)" fill="#000000" stroke="none"
                        style="fill: #898989;">
                        <path d="M2486 5105 c-21 -7 -54 -28 -72 -46 -68 -66 -65 -5 -62 -1131 l3
-1016 30 -44 c87 -123 263 -123 350 0 l30 44 3 1016 c3 1136 7 1068 -68 1136
-60 54 -137 69 -214 41z"></path>
                        <path d="M1662 4508 c-24 -4 -99 -36 -166 -71 -468 -244 -814 -598 -1041
-1062 -144 -293 -214 -559 -235 -889 -41 -658 201 -1309 663 -1778 367 -372
822 -604 1347 -685 160 -24 500 -24 660 0 682 105 1254 470 1635 1042 77 116
188 337 239 478 108 292 156 625 136 943 -21 330 -91 596 -235 889 -228 468
-596 840 -1059 1070 -145 73 -203 84 -276 53 -70 -30 -129 -116 -130 -188 0
-108 43 -160 201 -239 328 -165 573 -382 768 -681 370 -567 411 -1293 107
-1898 -101 -201 -198 -334 -361 -498 -366 -368 -838 -564 -1355 -564 -426 0
-817 132 -1165 393 -101 76 -283 258 -362 362 -440 582 -514 1355 -193 2010
187 382 484 678 881 877 79 40 129 71 148 94 83 101 59 246 -53 319 -32 21
-104 32 -154 23z"></path>
                    </g>
                </svg>